<svg xmlns="http://www.w3.org/2000/svg" viewBox="0 0 64 64">
  <!-- 印底——深朱砂，厚重 -->
  <rect x="1" y="1" width="62" height="62" rx="4" ry="4" fill="#9B2522"/>
  <!-- 印邊——雙層，古樸 -->
  <rect x="1" y="1" width="62" height="62" rx="4" ry="4" fill="none" stroke="#6B1410" stroke-width="2"/>
  <rect x="5" y="5" width="54" height="54" rx="2" ry="2" fill="none" stroke="#F5E6D3" stroke-width="1.2" opacity="0.35"/>
  <!-- 篆書「文」——崇羲篆體之輪廓，白文印法 -->
  <g transform="translate(19.05, 54.00) scale(0.043393, -0.043393) translate(-213, 199)" fill="#F5E6D3">
    <path d="M512 815Q531 811 545 788Q557 766 557 755V741L549 726L555 716L549 689L551 685V681L547 675Q577 645 609 631Q623 617 691 563Q691 556 740 495Q753 478 757 467Q766 459 771 436Q771 433 788 403Q784 402 784 399Q787 399 792 378Q802 378 810 343L804 339L806 324V318Q806 314 802 314Q802 317 794 322Q794 310 780 310Q766 324 753 324Q747 351 744 355V370Q738 370 738 374Q742 376 744 376Q735 383 726 409L707 444Q696 470 689 473Q663 473 613 444Q604 435 586 425Q586 420 563 411Q552 397 549 397Q549 391 580 347Q595 300 600 294Q603 294 631 217V201H635Q635 195 633 195L635 184V180L633 176Q639 176 641 166Q639 152 639 143Q644 134 650 118Q648 118 648 116Q656 116 658 81Q658 80 656 65L660 67H664L666 57Q666 55 664 55Q672 41 672 32L668 30L672 22L670 11Q670 -1 683 -22Q691 -52 693 -52Q697 -53 697 -57V-61Q697 -65 693 -65Q693 -67 695 -67L693 -77V-79Q699 -87 699 -94L697 -98Q697 -100 709 -137V-149H712Q712 -158 701 -176Q703 -180 703 -182L699 -184H689Q689 -189 674 -193Q662 -190 644 -143L646 -139L644 -127L646 -123Q627 -43 615 55Q606 81 600 112L602 116L578 219Q546 302 526 337Q518 349 516 349Q483 322 483 300Q475 300 464 265Q453 265 452 240Q444 229 444 226L446 221Q442 209 435 207L438 199Q435 178 429 178L431 174V168Q431 164 427 164L429 160Q424 152 417 131Q415 131 415 129L419 123L411 110L413 106V104Q403 81 403 79L407 77Q407 69 396 69L400 63Q396 43 396 40L398 32Q396 24 390 24L394 18Q394 -3 386 -3V-5Q391 -5 394 -7Q392 -13 392 -30H394V-34Q390 -34 386 -50L390 -63Q390 -65 388 -65L390 -75V-92Q390 -94 388 -94L390 -98V-100L386 -106H390V-110H384Q384 -117 390 -125Q386 -127 384 -127L386 -131V-147Q386 -149 382 -164L386 -170Q377 -186 374 -186L345 -199Q341 -199 341 -195L337 -197Q318 -180 318 -143Q319 -124 324 -118Q324 -116 322 -116Q326 -99 326 -96Q324 -92 324 -90Q328 -90 337 -42Q332 -42 332 -36L339 -26Q332 -26 332 -22Q341 -20 341 -9Q339 -9 339 -7Q343 -7 343 -1L341 13Q346 13 347 28Q345 31 345 36L349 38L347 42Q347 44 349 44L347 48V51Q351 57 357 100L368 131L365 135Q370 140 372 158Q400 249 413 277Q430 324 475 380V386Q408 434 357 454Q357 459 330 465Q300 419 277 351Q275 333 271 333Q273 329 273 327Q266 317 265 300L260 298Q258 302 258 304L252 300L248 302Q248 301 246 294H242L238 296L240 300V302Q221 302 221 314Q213 329 213 341Q238 417 252 425L250 430L287 498Q317 535 347 568Q349 568 376 594Q385 598 431 631Q477 653 485 666Q485 670 481 687Q485 687 485 691Q483 726 479 726L483 728Q481 732 481 734L483 749Q479 763 479 774V780Q485 801 506 813Q508 813 512 815ZM518 605Q518 595 477 590Q428 574 407 549Q399 549 372 516Q399 509 497 436Q511 425 518 425Q518 430 561 465L637 522Q641 522 641 530Q568 590 545 590Q544 596 518 605ZM712 -162H718Q718 -166 714 -166Z"/>
  </g>
</svg>