<svg xmlns="http://www.w3.org/2000/svg" viewBox="513 -3223 3347 4044"><path d="M3662 2316Q3595 2416 3532 2443L3506 2452Q3428 2542 3279 2641Q3137 2735 3105 2760Q3069 2788 3039 2815Q2969 2821 2904 2891L2834 2968Q2768 3034 2690 3025Q2682 3024 2675 3023Q2654 2987 2597 2951L2550 2919Q2513 2889 2499 2846Q2413 2828 2332 2746L2233 2641Q2184 2593 2135 2566Q2069 2575 2010 2513L1930 2423Q1893 2384 1854 2368L1826 2332Q1796 2284 1844 2275Q1899 2239 1932 2251Q1935 2253 1938 2254Q2005 2303 2252 2498Q2509 2701 2675 2794Q2726 2812 2783 2786Q2801 2777 2821 2763Q2900 2646 3067 2531L3306 2374Q3430 2288 3506 2202H3579Q3672 2243 3663 2308Q3663 2312 3662 2316ZM1252 2587Q1140 2626 1138 2763Q1103 2846 1014 2829Q948 2816 899 2763L981 2590L1013 2535Q1032 2506 1054 2483Q1077 2442 1035 2399L980 2347Q975 2342 971 2337Q951 2178 904 2087Q902 2082 899 2077Q847 2043 848 1979L852 1908L847 1882Q841 1863 826 1849Q814 1841 791 1850Q775 1856 768 1838Q766 1834 764 1828L784 1818Q787 1817 810 1826Q835 1835 847 1818V1745Q785 1614 762 1352L743 1111Q730 1068 735 955Q740 841 720 795L712 779Q717 757 712 680L711 629Q716 557 784 540Q813 517 853 540Q900 567 901 568Q905 570 909 571Q956 616 917 726Q917 727 909 748Q931 897 952 1250Q973 1615 1011 1806Q1012 1812 1013 1818Q1050 1868 1052 1975Q1053 2085 1056 2105Q1070 2218 1158 2275Q1220 2301 1257 2245Q1262 2238 1295 2170L1317 2131L1335 2109Q1305 2010 1320 1847Q1334 1691 1334 1654Q1334 1553 1304 1475Q1263 1422 1269 1321L1275 1212L1273 1174Q1231 1004 1237 731L1243 432Q1243 373 1241 322Q1289 -104 1356 -395Q1365 -443 1410 -460L1470 -478Q1468 -459 1486 -442Q1500 -429 1501 -416Q1489 -360 1479 -217Q1470 -91 1436 -22Q1428 -5 1418 10Q1437 100 1429 257Q1424 372 1428 425Q1417 499 1415 673Q1413 840 1387 935Q1420 992 1416 1091Q1411 1193 1414 1221Q1417 1256 1428 1288L1433 1473Q1440 1581 1480 1631Q1463 1736 1488 1917Q1512 2090 1512 2154Q1512 2163 1512 2171Q1492 2283 1389 2416L1259 2578Q1255 2582 1252 2587ZM3018 2140Q3036 2158 3099 2178Q3161 2198 3176 2223Q3189 2244 3184 2275Q3100 2322 2980 2317L2924 2310Q2879 2302 2842 2285Q2703 2337 2471 2308L2249 2275Q2236 2157 2299 2145Q2328 2139 2415 2161Q2516 2186 2562 2173Q2592 2164 2613 2140Q2810 2190 2950 2160Q2986 2153 3018 2140ZM2561 1932Q2538 2014 2454 1950L2384 1890Q2366 1867 2376 1837Q2390 1798 2385 1773Q2385 1769 2384 1766Q2352 1734 2288 1737L2234 1738L2218 1735Q2152 1742 2147 1789Q2147 1796 2151 1851Q2154 1893 2135 1911Q2101 1966 2049 1968Q2034 1968 2021 1963Q1961 1918 1958 1860V1849Q1971 1756 1970 1553Q1969 1355 1994 1249Q2001 1221 2010 1194Q2008 1158 2043 1140L2083 1119Q2092 1112 2097 1104L2104 1090L2199 1055Q2289 1029 2353 1080Q2375 1125 2441 1151Q2505 1176 2514 1181Q2549 1201 2561 1236Q2593 1332 2590 1504Q2588 1656 2592 1703Q2546 1800 2558 1907Q2559 1920 2561 1932ZM2384 1236Q2355 1258 2304 1244L2262 1235Q2249 1233 2239 1236Q2143 1239 2133 1311Q2129 1335 2139 1417Q2146 1479 2135 1506Q2128 1545 2162 1554L2218 1565Q2239 1572 2249 1589Q2276 1577 2350 1574Q2414 1572 2433 1550L2443 1533L2448 1508L2447 1475Q2448 1398 2413 1311Q2388 1248 2384 1236ZM3506 1859 3444 1942Q3379 1953 3350 1900L3316 1820Q3308 1806 3299 1797Q3265 1802 3166 1789Q3099 1780 3063 1785L3031 1792Q2976 1812 2956 1880Q2879 1860 2870 1793Q2867 1771 2873 1745Q2890 1696 2890 1570Q2889 1478 2896 1437L2904 1402Q2918 1371 2925 1286L2933 1225Q2945 1172 2977 1142Q3031 1066 3144 1067Q3158 1067 3271 1078Q3326 1084 3361 1080Q3490 1176 3522 1261Q3542 1315 3527 1371Q3544 1518 3535 1664Q3528 1775 3506 1859ZM3330 1205Q3282 1171 3185 1172L3101 1174Q3087 1238 3013 1314Q3004 1323 2987 1340Q3042 1371 3036 1428L3019 1520Q3015 1566 3039 1600Q3099 1601 3223 1631Q3282 1645 3319 1651Q3400 1566 3374 1399Q3369 1369 3334 1224ZM2384 831Q2349 846 2270 911Q2187 979 2139 994Q2071 1013 2010 966Q1965 904 2019 866Q2029 858 2094 827Q2144 803 2156 779Q2200 714 2154 666Q2144 655 2088 613Q2025 566 2013 520L2010 490Q2010 489 2010 488Q1915 374 1867 169L1813 -84Q1811 -109 1856 -135Q1872 -143 1875 -146Q1974 -73 2023 84Q2029 101 2068 256Q2106 406 2162 476Q2224 553 2332 581Q2365 586 2392 566Q2403 559 2411 548L2416 540Q2397 511 2401 438V393L2395 375V374Q2397 381 2392 381L2365 374H2364Q2302 243 2285 177Q2269 114 2270 51Q2281 -23 2271 -189Q2261 -357 2279 -439Q2299 -528 2353 -593Q2420 -573 2441 -515Q2447 -497 2447 -478Q2383 -101 2450 224Q2483 388 2551 550Q2558 633 2485 716L2406 800Q2393 817 2384 831ZM3330 197Q3428 474 3352 616Q3338 642 3319 664Q3306 670 3185 715Q3063 761 3001 823Q2989 836 2977 851Q2951 850 2887 874L2845 887Q2801 896 2779 862Q2768 809 2824 767L2896 718Q2916 702 2925 685Q2933 629 2894 553Q2856 478 2848 452Q2844 438 2842 425Q2842 326 2777 191L2712 59Q2652 -80 2675 -198Q2676 -206 2689 -217Q2695 -223 2696 -229Q2726 -248 2778 -242Q2805 -239 2821 -229Q2866 -150 2872 -29Q2873 -14 2873 -1Q2917 66 2942 207Q2967 342 2983 385Q3025 505 3132 550Q3191 524 3207 447L3227 321Q3231 304 3236 290Q3184 99 3200 -47Q3202 -65 3205 -84Q3201 -297 3271 -449Q3316 -545 3392 -624Q3446 -559 3433 -482Q3428 -451 3413 -416Q3342 -125 3331 33Q3324 120 3330 197Z" fill="#1a1a1a" transform="scale(1,-1)"/></svg>