<svg xmlns="http://www.w3.org/2000/svg" viewBox="340 -3169 2761 3999"><path d="M2936 1936 2472 2272Q2462 2312 2384 2364L2364 2376L2240 2496Q2236 2504 2128 2576Q2077 2608 2064 2648L1728 2952Q1656 3024 1605 2996Q1586 2986 1568 2960L1480 2848L1436 2812Q1401 2725 1248 2596Q1099 2471 1056 2360Q962 2256 816 2056Q732 1948 672 1888Q653 1851 568 1760Q500 1681 507 1619Q507 1616 508 1612L576 1564Q592 1556 615 1563Q620 1565 628 1568Q664 1582 720 1644Q765 1683 808 1688Q842 1802 1024 1984Q1176 2142 1212 2220L1492 2568Q1572 2659 1676 2728Q1781 2651 2112 2360Q2281 2217 2456 2100Q2682 1881 2747 1833Q2754 1828 2760 1824Q2774 1815 2858 1769Q2863 1767 2868 1764Q2912 1760 2927 1784Q2936 1797 2936 1820V1928ZM1984 1664Q2018 1708 2089 1698Q2104 1696 2120 1692Q2183 1676 2224 1686Q2246 1692 2260 1704Q2298 1717 2316 1776Q2322 1810 2336 1824Q2261 1888 2118 1881Q2109 1881 2100 1880L2028 1876L1872 1904Q1830 1876 1743 1886Q1714 1889 1680 1896Q1609 1916 1556 1905L1525 1895L1512 1888Q1460 1876 1392 1885Q1362 1888 1328 1896L1296 1904Q1264 1872 1167 1875L1152 1876Q1100 1880 1069 1858L1053 1843Q1045 1835 1040 1824Q1020 1796 1038 1766Q1046 1752 1064 1736L1083 1721L1084 1720Q1148 1704 1256 1714Q1311 1720 1376 1732L1416 1740Q1518 1716 1798 1719Q1819 1720 1840 1720H1864Q1882 1720 1924 1684Q1954 1660 1980 1663Q1982 1664 1984 1664ZM1572 1336 1532 1428 1504 1436 1480 1432Q1408 1411 1404 1346Q1403 1336 1404 1324L1408 1293V1292Q1412 1216 1360 1187Q1333 1172 1288 1168L1096 1164L1073 1156H1072Q1040 1165 1051 1222Q1055 1242 1064 1268Q1072 1288 1072 1312Q1001 1436 960 1436L932 1420L921 1405L920 1404Q869 1124 840 700Q840 554 952 448Q996 399 1072 364L1292 376Q1349 387 1392 424Q1580 512 1592 796V1112Q1596 1136 1584 1172Q1576 1198 1560 1228Q1530 1288 1572 1336ZM1340 608Q1257 556 1158 565Q1145 566 1132 568L1084 580Q992 747 1014 885Q1018 907 1024 928Q1032 960 1040 976L1212 968L1235 960H1236Q1240 956 1275 962Q1302 967 1340 976Q1380 980 1395 961Q1404 950 1408 932Q1424 780 1397 694L1382 656Q1372 638 1360 624Q1348 612 1340 608ZM2536 1268Q2506 1352 2384 1352L2260 1364Q2233 1369 2208 1388L2164 1368Q2100 1408 1994 1385L1931 1368L1888 1352L1768 1312Q1764 1261 1805 1216Q1830 1188 1872 1164L1952 1112Q1948 1096 1950 1009Q1951 945 1956 860Q1962 632 1824 560L1789 545L1788 544Q1744 496 1771 399Q1786 344 1824 276Q1840 240 1848 228Q2097 116 2152 72Q2230 6 2260 -72Q2253 -128 2184 -468Q2148 -535 2158 -591Q2161 -608 2168 -624Q2184 -651 2224 -664Q2299 -641 2336 -488Q2362 -359 2380 -332Q2411 -191 2440 108L2260 248Q2209 276 2150 269Q2135 268 2120 264L1984 304Q1958 317 1952 348Q1944 388 1946 427Q1946 442 1948 456Q1960 502 2000 536Q2060 542 2312 608Q2414 635 2472 640L2616 776Q2659 829 2672 896Q2688 1000 2655 1091Q2637 1141 2604 1188Q2574 1230 2536 1268ZM2320 776 2184 760V1080V1112Q2190 1157 2288 1200L2320 1216Q2455 1112 2472 1008Q2472 855 2320 776Z" fill="#1a1a1a" transform="scale(1,-1)"/></svg>