<svg xmlns="http://www.w3.org/2000/svg" viewBox="839 -3272 2891 4036"><path d="M1223 2305Q1329 2244 1425 2313Q1462 2339 1539 2423Q1623 2515 1677 2547Q1702 2562 1728 2571Q1789 2584 1885 2646Q1977 2705 2022 2720Q2070 2736 2117 2731Q2116 2624 2019 2502L1879 2336L1869 2323L1834 2359Q1827 2348 1833 2310L1834 2288Q1814 2268 1750 2183Q1690 2103 1639 2066Q1626 2015 1637 1971Q1649 1920 1692 1898Q1798 1866 1877 1950Q1903 1978 1964 2073Q2028 2171 2082 2208Q2162 2309 2169 2316Q2241 2398 2312 2421Q2340 2388 2425 2269L2485 2188Q2586 2062 2702 2013Q2709 2018 2771 2048Q2837 2081 2849 2124Q2852 2134 2853 2146Q2806 2228 2692 2327Q2577 2426 2568 2434Q2484 2512 2445 2589Q2382 2642 2362 2740Q2358 2763 2357 2784Q2390 2780 2424 2751Q2427 2749 2428 2748Q2742 2731 3049 2497Q3131 2434 3207 2359Q3247 2319 3304 2369L3340 2403Q3349 2521 3235 2613L3180 2653L3049 2737Q3028 2752 3012 2766Q2930 2827 2793 2863Q2673 2894 2640 2908Q2599 2902 2541 2930L2500 2947L2475 2951L2454 2947Q2450 2945 2445 2943Q2380 2944 2337 3005L2288 3081Q2283 3088 2277 3094Q2247 3107 2202 3088L2179 3076Q2115 2977 1968 2915Q1949 2906 1792 2849L1736 2828Q1719 2822 1683 2786L1655 2762Q1625 2740 1595 2748Q1539 2700 1375 2585Q1232 2484 1169 2421Q1173 2411 1180 2363Q1187 2321 1217 2307Q1220 2306 1223 2305ZM3553 1765Q3543 1809 3501 1828Q3462 1846 3458 1849Q3442 1861 3438 1880Q3387 1884 3361 1881Q3340 1878 3322 1871Q3274 1870 3116 1850L3016 1840H2944Q2867 1845 2800 1871Q2730 1829 2591 1834L2444 1839Q2415 1839 2392 1836Q2379 1842 2353 1818Q2331 1797 2323 1806Q2316 1813 2312 1836Q2295 1851 2250 1827L2233 1818Q2145 1791 2098 1812Q2080 1821 2064 1836V1818Q1990 1802 1779 1782Q1651 1770 1577 1756Q1550 1781 1487 1775Q1428 1770 1409 1778L1400 1783Q1355 1733 1268 1744L1158 1762Q1080 1770 1037 1721Q977 1635 1064 1584Q1074 1578 1144 1548Q1148 1546 1152 1544Q1202 1541 1239 1563Q1266 1578 1285 1606Q1413 1590 1640 1605Q1866 1620 1976 1612Q2007 1610 2038 1606Q2185 1637 2539 1640L2605 1641Q2700 1582 2733 1450Q2740 1422 2760 1286L2776 1202Q2779 1190 2782 1180Q2784 970 2755 832Q2722 680 2649 578Q2563 552 2479 447L2365 296Q2329 252 2295 223V37Q2301 -135 2371 -233Q2373 -235 2374 -237Q2383 -313 2467 -402L2560 -498Q2605 -549 2622 -592H2755Q2821 -594 2820 -544Q2819 -524 2795 -453Q2783 -416 2782 -397Q2733 -399 2683 -351L2649 -317Q2643 -300 2583 -165Q2521 -26 2522 69Q2522 129 2543 188Q2611 264 2649 285Q2681 337 2759 377Q2839 418 2855 429Q2906 464 2933 516Q3005 736 2976 1078Q2971 1137 2933 1444Q2921 1539 2915 1606Q2931 1648 2971 1645L3015 1640Q3036 1641 3048 1659Q3121 1629 3225 1644Q3331 1659 3347 1660Q3376 1661 3402 1659Q3469 1655 3520 1685Q3572 1716 3553 1765ZM2428 968Q2454 1034 2446 1167Q2438 1293 2443 1336Q2444 1343 2445 1349Q2416 1414 2357 1446Q2297 1475 2233 1418Q2212 1399 2197 1375Q2148 1309 2025 1308L1848 1316Q1826 1315 1807 1313Q1785 1324 1733 1370Q1674 1423 1630 1429Q1613 1431 1595 1428Q1544 1402 1542 1321V1251Q1557 1182 1558 1016Q1560 847 1583 769Q1622 636 1748 581Q1751 579 1754 578Q1938 523 2141 587Q2288 633 2392 728Q2396 746 2425 817Q2455 892 2436 948Q2433 958 2428 968ZM2162 852Q1998 775 1851 788Q1843 789 1834 790Q1734 877 1741 1030Q1742 1074 1754 1118Q1833 1161 1956 1147L2091 1129Q2151 1125 2197 1136Q2197 1114 2212 1023Q2227 933 2199 889Q2185 868 2162 852Z" fill="#1a1a1a" transform="scale(1,-1)"/></svg>