<svg xmlns="http://www.w3.org/2000/svg" viewBox="245 -3294 3604 4177"><path d="M3548 2120Q3340 2300 3097 2277Q3079 2275 3060 2272Q3044 2272 3004 2264Q2964 2315 2968 2479Q2968 2487 2968 2496Q2972 2516 2972 2540Q2928 2613 2936 2664Q2937 2672 2940 2680L2951 2695L2952 2696Q2920 2739 2920 2900Q2920 3041 2832 3076L2808 3084Q2764 3051 2767 2984Q2768 2980 2768 2976L2772 2940Q2744 2865 2752 2699L2760 2596L2768 2420Q2762 2345 2740 2296Q2674 2224 2600 2236Q2592 2238 2584 2240Q2328 2222 2208 2132Q2052 2042 2052 1720V1700Q2094 1490 2340 1412Q2384 1416 2475 1393Q2514 1383 2564 1368Q2653 1340 2718 1343Q2723 1344 2728 1344Q2764 1296 2760 1173Q2760 1167 2760 1160Q2756 1120 2757 1087L2760 1056Q2784 966 2784 964Q2784 942 2760 924L2768 752Q2772 712 2796 648Q2776 616 2782 501L2792 380L2796 328Q2784 276 2784 1Q2784 -8 2784 -24Q2790 -138 2772 -216Q2800 -286 2797 -365Q2797 -374 2796 -384Q2772 -408 2780 -461Q2783 -477 2788 -496Q2800 -531 2797 -554Q2797 -557 2796 -560Q2792 -576 2808 -585Q2816 -590 2828 -592Q2848 -599 2848 -604Q2906 -575 2976 -452L2984 -436Q2968 -396 2973 -311Q2976 -268 2984 -216Q2996 -132 2984 -84L2968 104Q2976 136 2984 152V536L2980 1280Q2980 1332 2984 1356Q3226 1392 3384 1480Q3444 1476 3510 1544Q3545 1580 3580 1636Q3592 1652 3592 1656Q3652 1754 3634 1888Q3627 1940 3608 1996Q3586 2057 3548 2120ZM2664 1524 2452 1536 2208 1700Q2244 2001 2452 2096Q2489 2087 2640 2076L2695 2067Q2700 2066 2704 2064Q2752 2028 2748 1911Q2748 1905 2748 1900Q2742 1810 2772 1768L2728 1580Q2709 1530 2664 1524ZM3360 1656Q3294 1590 3192 1536Q3180 1542 3064 1548Q2982 1553 2973 1611Q2971 1621 2972 1632L2984 2044V2096Q3064 2128 3194 2086Q3253 2067 3324 2032Q3404 1992 3416 1988Q3456 1936 3437 1856L3422 1808L3404 1768ZM1344 568Q1282 759 1276 1280Q1276 1464 1268 1624Q1292 1642 1289 1702Q1288 1707 1288 1712Q1284 1744 1300 1762Q1308 1772 1320 1776Q1328 1839 1372 1988Q1380 2016 1388 2064Q1417 2128 1516 2140Q1602 2152 1632 2200Q1744 2212 1804 2320Q1864 2422 1876 2440Q1888 2468 1878 2519Q1872 2547 1860 2584Q1856 2596 1856 2620Q1792 2748 1776 2796Q1749 2818 1668 2936Q1616 3018 1548 3036Q1544 3040 1532 3040Q1474 3005 1468 2928Q1468 2928 1464 2908Q1488 2831 1644 2796Q1628 2756 1649 2704Q1660 2678 1680 2648Q1720 2588 1714 2534Q1714 2527 1712 2520Q1696 2504 1701 2480L1710 2456L1712 2452L1716 2424L1696 2408Q1660 2426 1624 2372L1596 2336L1588 2332Q1576 2338 1504 2320H1472Q1460 2324 1462 2348Q1462 2354 1464 2364L1272 2836Q1232 2908 1212 2940L1100 3016Q1080 3024 1055 3017Q1044 3014 1032 3008Q1016 2976 1027 2938Q1034 2917 1048 2892Q1068 2859 1068 2840Q1296 2458 1255 2120Q1249 2078 1240 2036Q1221 1972 1200 1920L1148 1780Q1144 1756 1144 1712Q1112 1680 1120 1598L1124 1568Q1132 1512 1113 1476Q1104 1458 1088 1444Q1096 1420 1093 1345Q1091 1297 1084 1236Q1080 1176 1087 1136L1097 1098L1100 1092Q1072 1048 1080 974L1091 914Q1093 905 1096 896L1112 804Q1112 732 1164 460Q1184 345 1179 253Q1178 234 1176 216Q1225 118 1260 -156Q1284 -351 1344 -460Q1312 -487 1315 -536Q1316 -540 1316 -544L1320 -580L1360 -656Q1370 -666 1388 -672Q1471 -637 1500 -560Q1520 -496 1498 -368Q1488 -307 1468 -232L1456 -184Q1425 272 1344 568ZM956 2120Q1008 2216 969 2361Q948 2435 904 2524Q900 2536 888 2552Q805 2661 636 2776Q586 2757 580 2720Q586 2621 704 2440Q816 2284 806 2159Q805 2151 804 2144Q800 2128 792 2088L636 1920Q546 1926 456 1776Q456 1708 550 1712Q553 1712 556 1712H612Q950 1902 956 2120ZM1776 604 1736 1132Q1728 1180 1712 1268L1744 1456Q1772 1500 1757 1546Q1750 1568 1732 1592Q1692 1640 1656 1625Q1638 1618 1620 1596Q1604 1572 1600 1556Q1600 1488 1584 1408Q1580 1380 1586 1326Q1587 1320 1588 1312L1548 1224Q1548 1213 1568 1200Q1568 418 1760 -68Q1760 -76 1764 -84Q1776 -96 1808 -192Q1820 -235 1840 -248Q1868 -308 1929 -287Q1951 -280 1976 -264Q1984 -260 1996 -248Q1996 -228 1936 -24Q1928 0 1920 40Q1889 133 1792 544Q1784 576 1776 604ZM936 348Q940 368 927 420Q922 444 912 476Q896 524 907 559Q912 576 924 592Q904 632 907 736Q908 744 908 752Q908 822 880 856V1084V1124Q864 1156 867 1263Q869 1300 872 1352Q888 1464 848 1519Q829 1544 800 1556Q768 1564 744 1568Q680 1555 680 1472V1424Q686 1220 680 1184Q672 1168 668 1156Q689 1076 720 672Q738 461 780 328L796 16L792 -39V-40L856 -316Q884 -372 888 -384Q923 -404 952 -398Q960 -396 968 -392Q1060 -306 1047 -215Q1046 -207 1044 -200L1035 -176Q1034 -174 1032 -172Q1008 -100 972 176Q955 279 936 348Z" fill="#1a1a1a" transform="scale(1,-1)"/></svg>