<svg xmlns="http://www.w3.org/2000/svg" viewBox="385 -3260 3324 4083"><path d="M3469 -407Q3352 -386 3236 -397Q3154 -404 3077 -427Q3005 -384 2872 -390L2721 -398L2655 -395Q2631 -392 2609 -387Q2559 -372 2438 -380L2342 -384L2288 -380L2246 -370Q2193 -351 2161 -307Q2146 -175 2153 99Q2159 371 2143 503Q2131 602 2105 685Q2151 755 2145 886L2137 1034Q2137 1069 2141 1097Q2115 1141 2127 1218Q2138 1292 2135 1317Q2131 1356 2105 1389Q2148 1467 2134 1607L2117 1766Q2109 1895 2161 1973Q2213 1965 2302 1991Q2384 2015 2420 2011Q2448 2008 2473 1993Q2537 2020 2655 2017Q2767 2013 2808 2022Q2852 2031 2885 2053Q2914 2013 2969 2015Q3025 2017 3028 2016Q3057 2013 3077 1993Q3096 2005 3162 2022Q3227 2039 3244 2068Q3253 2085 3253 2109Q3254 2150 3212 2172L3164 2196Q3144 2209 3137 2229L2621 2201L2407 2172Q2242 2157 2173 2235Q2162 2247 2153 2261Q2110 2332 2125 2457L2143 2597Q2149 2679 2125 2733Q2201 2827 2362 2813Q2386 2810 2493 2793Q2528 2810 2609 2814Q2693 2819 2734 2843Q2742 2848 2749 2853Q2796 2823 2912 2822Q3026 2821 3062 2814Q3094 2807 3117 2793Q3154 2815 3249 2814Q3345 2814 3379 2827Q3433 2847 3449 2909Q3417 2984 3327 3011L3256 3027L3173 3044L3126 3061L3117 3065Q2925 3027 2608 3020Q2341 3014 2261 3009Q2142 3000 1800 2995L1577 2989Q1521 2986 1327 3001Q1116 3018 1027 2993Q1020 2991 1013 2989Q894 3007 801 2974Q726 2947 681 2889Q691 2812 763 2789Q775 2785 852 2771Q891 2764 913 2753Q983 2797 1097 2784L1226 2768Q1331 2760 1401 2813Q1480 2773 1614 2783L1744 2793Q1819 2795 1869 2773Q1877 2699 1859 2548Q1841 2400 1853 2329Q1858 2295 1869 2265Q1892 2205 1737 2180Q1557 2151 1113 2173Q931 2181 894 2176Q876 2173 873 2169L836 2103Q810 2045 837 1993Q857 1933 916 1933L1018 1944Q1048 1944 1069 1933Q1113 1925 1180 1953Q1247 1982 1282 1983Q1311 1983 1341 1973Q1409 1944 1514 1961Q1628 1980 1640 1981Q1710 1987 1773 1973Q1853 1956 1866 1877L1870 1828V1731Q1875 1669 1909 1641Q1857 1591 1875 1492L1889 1429Q1866 1164 1871 1032Q1877 891 1909 765Q1863 608 1875 358L1893 56Q1900 -141 1869 -287L1693 -387Q1575 -368 1390 -389Q1219 -408 1151 -405Q1078 -403 1013 -387Q959 -402 827 -409Q689 -416 617 -446Q598 -453 581 -463Q582 -536 594 -558Q603 -573 621 -583Q780 -645 1050 -619Q1093 -615 1157 -607Q1360 -583 1547 -591Q1606 -593 1669 -599Q1819 -610 1925 -611Q1957 -611 2068 -581Q2154 -557 2181 -563Q2225 -571 2367 -572Q2465 -573 2513 -583L2886 -586Q3052 -584 3137 -563Q3184 -555 3305 -565Q3428 -575 3482 -555Q3497 -550 3509 -543Q3523 -498 3490 -442Q3471 -412 3469 -407Z" fill="#1a1a1a" transform="scale(1,-1)"/></svg>