<svg xmlns="http://www.w3.org/2000/svg" viewBox="159 -3252 3067 4043"><path d="M2947 1840Q2942 1942 2973 2136Q2994 2261 2999 2320Q3036 2450 3040 2505Q3045 2585 3015 2656Q2881 2819 2611 2850Q2535 2859 2423 2860Q2329 2852 2218 2927L2091 3019Q1987 3086 1901 3065Q1892 3063 1883 3060Q1859 3006 1861 2982L1867 2961V2960L1960 2893Q2000 2868 2035 2860Q2043 2813 2106 2781L2192 2740Q2236 2716 2251 2681L2255 2672Q2155 2245 2155 1780Q2155 1757 2140 1634Q2128 1534 2139 1476Q2188 1441 2234 1449Q2250 1452 2271 1460Q2329 1477 2316 1608L2303 1732Q2302 1741 2303 1748Q2307 1801 2338 1967Q2355 2059 2359 2120Q2372 2323 2374 2344Q2378 2380 2383 2412Q2411 2572 2475 2667Q2565 2803 2687 2712Q2816 2614 2820 2483Q2823 2424 2792 2295Q2758 2153 2761 2072Q2762 2060 2763 2048Q2694 1863 2788 1575Q2807 1519 2831 1460Q2839 1411 2878 1408L2946 1411Q2956 1411 2963 1408Q3013 1392 3034 1460Q3040 1481 3043 1508Q3053 1569 3008 1666Q2965 1758 2957 1784Q2948 1814 2947 1840ZM531 1972Q544 1845 540 1762Q539 1755 539 1748L524 1636Q520 1581 535 1560Q630 1424 854 1381Q910 1370 1043 1356Q1101 1332 1197 1339Q1286 1347 1323 1338Q1344 1333 1363 1324Q1417 1330 1528 1310Q1627 1292 1674 1305Q1718 1318 1751 1356Q1781 1453 1750 1492L1735 1506Q1733 1507 1731 1508Q1649 1526 1514 1525L1463 1524Q1369 1572 1371 1751Q1371 1799 1379 1848L1547 1880Q1669 1941 1691 2092Q1698 2141 1696 2283Q1695 2347 1699 2384Q1704 2430 1599 2479Q1561 2497 1525 2508Q1514 2511 1507 2512Q1487 2516 1412 2506L1360 2502Q1317 2502 1295 2524Q1277 2544 1273 2644Q1270 2709 1279 2724Q1328 2808 1508 2800Q1545 2798 1583 2792Q1618 2791 1631 2832L1647 2892Q1622 2950 1595 2958Q1589 2960 1583 2960Q1522 2937 1427 2951L1351 2960Q1281 2963 1227 2924Q1183 2920 998 2920Q798 2919 701 2882Q694 2879 687 2876Q502 2652 547 2485Q549 2479 551 2472Q496 2331 516 2109ZM807 2672Q875 2742 969 2748Q1046 2753 1091 2708Q1109 2656 1101 2609Q1094 2574 1075 2556Q1006 2497 901 2497L755 2504Q722 2547 760 2602L800 2657Q804 2665 807 2672ZM707 2068Q713 2092 707 2172Q701 2259 726 2291Q742 2311 771 2320Q995 2383 1334 2325Q1423 2310 1511 2288Q1511 2112 1481 2057L1475 2048Q1418 2051 1292 2028L1201 2014Q1168 2011 1139 2012Q1103 2012 951 2020Q814 2020 742 2040Q702 2051 707 2068ZM879 1868Q902 1862 1011 1852Q1097 1844 1131 1824Q1201 1782 1183 1686L1165 1620L1144 1547L1143 1544Q1101 1492 965 1526Q885 1546 816 1586L775 1613L751 1634Q746 1639 743 1644Q671 1749 702 1820Q728 1880 816 1878Q846 1877 879 1868ZM2963 -364Q2872 -352 2678 -360L2543 -364L2334 -375L2263 -372Q2191 -364 2163 -336Q2116 -290 2122 -143L2127 -36L2105 188Q2099 296 2119 344Q2149 414 2219 424Q2235 426 2324 425Q2363 424 2391 428Q2445 411 2457 341L2471 240Q2477 212 2491 192Q2536 139 2581 5Q2622 -117 2643 -153Q2651 -166 2659 -176Q2745 -178 2779 -168Q2825 -154 2847 -112Q2845 19 2779 108Q2717 172 2687 238Q2682 250 2679 260Q2673 288 2637 374Q2600 461 2611 512Q2613 522 2679 578Q2733 624 2743 640Q2760 670 2790 763Q2799 793 2807 812Q2872 973 2857 1102Q2853 1129 2847 1156Q2733 1269 2691 1193Q2672 1158 2657 1034L2643 943Q2635 908 2625 888L2612 869L2611 868Q2620 781 2543 733L2492 706Q2418 672 2398 654Q2394 651 2391 648Q2337 659 2254 630Q2183 605 2155 600Q1762 578 1557 589Q1333 601 1143 648Q1058 670 1022 815Q1021 820 1003 904L991 1027Q976 1120 923 1136Q873 1155 837 1143L815 1133Q800 1122 787 1104L821 843Q852 658 941 556Q970 524 1007 496L959 160Q925 126 909 45Q893 -42 880 -71Q869 -94 855 -112Q822 -178 837 -230Q846 -261 871 -296L947 -298Q992 -295 1023 -264Q1099 -156 1139 50L1183 292Q1189 320 1195 344Q1210 413 1287 438Q1314 447 1343 448Q1380 447 1395 395L1411 328Q1439 256 1428 142Q1418 37 1422 1Q1425 -23 1431 -44Q1407 -90 1403 -191Q1399 -283 1384 -317L1369 -341Q1366 -344 1363 -348Q1205 -364 863 -363Q546 -363 383 -380Q336 -392 342 -459L351 -532Q399 -613 491 -609Q511 -608 603 -591Q701 -573 755 -600Q813 -575 942 -574Q1076 -573 1129 -562Q1154 -556 1175 -548Q1248 -589 1362 -571L1494 -548Q1581 -538 1647 -564Q1693 -538 1774 -542Q1852 -547 1885 -538Q1894 -535 1903 -532Q1950 -563 2009 -547Q2059 -533 2072 -533Q2107 -533 2139 -564Q2262 -528 2456 -543Q2642 -556 2655 -557Q2829 -562 2947 -500Q2947 -481 2973 -443Q2997 -409 2986 -388Q2979 -376 2963 -364ZM1899 232Q1898 210 1899 -36Q1899 -207 1883 -312Q1841 -370 1741 -360Q1719 -357 1667 -348Q1617 -268 1613 -126L1610 19Q1607 60 1599 92Q1613 125 1623 238Q1633 363 1661 409Q1708 485 1827 448Q1899 424 1903 334Q1903 317 1900 255Q1899 242 1899 232ZM1411 1072Q1382 1026 1314 1031L1233 1039L1202 1035L1179 1026Q1160 1015 1146 994Q1145 991 1143 988Q1112 940 1161 897Q1182 877 1211 868L1367 860Q1411 861 1447 868Q1560 852 1740 903Q1762 909 1799 920Q1838 881 1910 894L2002 912Q2070 920 2119 884Q2176 912 2304 917Q2433 921 2481 933Q2486 935 2491 936Q2502 956 2486 996Q2475 1023 2475 1036Q2404 1083 2371 1095Q2320 1114 2271 1104Q2216 1077 2123 1072Q2032 1068 1987 1052Q1905 1067 1745 1053L1616 1044Q1496 1041 1411 1072Z" fill="#1a1a1a" transform="scale(1,-1)"/></svg>